<svg width="28" height="25" viewBox="0 0 28 25" fill="none" xmlns="http://www.w3.org/2000/svg">
<g clip-path="url(#clip0_32_4)">
<path d="M1.91157 22C1.79152 21.9996 1.67272 21.9731 1.56193 21.922C1.45115 21.8709 1.35057 21.7961 1.26592 21.702C1.18127 21.608 1.11422 21.4964 1.0686 21.3736C1.02297 21.2509 0.999663 21.1194 1 20.9867V2.01325C1 1.45341 1.40807 1 1.91157 1H19.0889C19.5919 1 20 1.45341 20 2.01325V20.9867C20.0003 21.1194 19.977 21.2509 19.9314 21.3736C19.8858 21.4964 19.8187 21.608 19.7341 21.702C19.6494 21.7961 19.5488 21.8709 19.4381 21.922C19.3273 21.9731 19.2085 21.9996 19.0884 22H1.91114H1.91157Z" stroke="white" stroke-width="2" stroke-linecap="round" stroke-linejoin="round"/>
<path fill-rule="evenodd" clip-rule="evenodd" d="M17 8.26663H15.4507C15.2445 8.26663 15.0466 8.36494 14.9007 8.53993C14.7549 8.71492 14.6729 8.95226 14.6729 9.19973V11.0667H17L16.6595 13.866H14.6729V19H12.1132V13.866H10V11.0671H12.0862L12.1132 8.41018L12.1056 7.45799C12.103 7.13631 12.1536 6.8172 12.2544 6.51912C12.3553 6.22103 12.5044 5.94988 12.6931 5.72132C12.8818 5.49277 13.1064 5.31134 13.3539 5.18753C13.6014 5.06372 13.8669 4.99999 14.1351 5H17V8.26663Z" fill="white"/>
</g>
<defs>
<clipPath id="clip0_32_4">
<rect width="28" height="25" fill="white"/>
</clipPath>
</defs>
</svg>
