<svg width="137" height="63" viewBox="0 0 137 63" fill="none" xmlns="http://www.w3.org/2000/svg">
<g filter="url(#filter0_d_32_8)">
<path d="M11.6979 43.7577L20.3371 43.6388C20.3186 42.2949 20.5734 41.0433 21.1015 39.8839C21.6296 38.7245 22.3038 37.7231 23.1243 36.8797L23.6043 36.8731C23.546 37.29 23.504 37.7226 23.4781 38.171C23.4514 38.5554 23.4251 38.9718 23.3993 39.4202C23.4055 39.8682 23.4114 40.3001 23.4172 40.7161C23.4255 41.324 23.433 41.868 23.4396 42.3479C23.4778 42.7954 23.5153 43.195 23.5521 43.5465C23.5894 43.93 23.642 44.2653 23.71 44.5524L4.7518 44.8134L4.74519 44.3335L7.61501 43.5739L7.18546 12.3769L4.29582 11.6966L4.28921 11.2166L14.1283 11.0812L14.1349 11.5611L11.2651 12.3207L11.6979 43.7577ZM39.3735 32.5756C36.5897 32.614 34.5345 33.2663 33.2078 34.5327C31.9127 35.7666 31.2801 37.4715 31.3101 39.6473C31.3299 41.0872 31.6973 42.2022 32.4122 42.9925C33.1272 43.7827 33.9006 44.1721 34.7325 44.1606C35.5005 44.15 36.1693 43.9168 36.7391 43.4609C37.3409 43.0046 37.846 42.5016 38.2545 41.9519C38.726 41.3374 39.1321 40.6117 39.4726 39.7749L39.3735 32.5756ZM35.6317 22.3062C34.6718 22.3194 33.8765 22.6664 33.2458 23.3471C32.6147 23.9959 32.3066 24.8642 32.3216 25.9521C32.3251 26.2081 32.3282 26.432 32.3309 26.624C32.3655 26.8156 32.3999 26.9911 32.4341 27.1507C32.4683 27.3102 32.5185 27.4695 32.5847 27.6286L28.7583 28.6414C28.693 28.5463 28.6432 28.419 28.609 28.2594C28.5748 28.0999 28.5404 27.9243 28.5058 27.7328C28.5031 27.5408 28.4996 27.2848 28.4952 26.9649C28.4859 26.2929 28.6371 25.6508 28.9487 25.0384C29.2599 24.3941 29.7161 23.8278 30.3175 23.3394C30.9503 22.8187 31.6968 22.4084 32.5567 22.1085C33.4482 21.7762 34.4699 21.6021 35.6218 21.5862C37.9256 21.5545 39.7425 22.1856 41.0724 23.4794C42.4343 24.7727 43.1303 26.5073 43.1602 28.6831L43.3585 43.0818L46.2481 43.762L46.2547 44.242L39.5354 44.3345L39.4957 41.4548C39.153 42.1316 38.7134 42.7457 38.177 43.2971C37.7352 43.7512 37.1647 44.1591 36.4657 44.5208C35.799 44.914 34.9857 45.1172 34.0258 45.1304C31.722 45.1622 29.9707 44.6422 28.7718 43.5706C27.605 42.4986 27.009 41.0507 26.9839 39.2268C26.9715 38.3309 27.1992 37.4317 27.6668 36.5292C28.1664 35.6262 28.9073 34.8159 29.8895 34.0983C30.9037 33.3803 32.1919 32.8025 33.754 32.365C35.3157 31.8954 37.1845 31.6457 39.3603 31.6157L39.3206 28.736C39.2876 26.3362 38.8965 24.6614 38.1473 23.7117C37.4302 22.7615 36.5916 22.293 35.6317 22.3062ZM51.9902 42.9629L51.7192 23.2848L48.8296 22.6045L48.823 22.1245L55.5423 22.032L55.582 24.9118C55.8932 24.2674 56.317 23.6695 56.8534 23.1181C57.2952 22.664 57.8654 22.2401 58.5641 21.8464C59.2627 21.4527 60.092 21.2493 61.0519 21.2361C62.0118 21.2229 62.8942 21.3867 63.6989 21.7277C64.5357 22.0682 65.2625 22.5543 65.8792 23.1858C66.4955 23.7854 66.9698 24.5309 67.3021 25.4224C67.666 26.2815 67.8554 27.255 67.8704 28.3429L68.0687 42.7415L70.9583 43.4218L70.9649 43.9018L61.6058 44.0306L61.5992 43.5507L64.229 42.7944L64.0308 28.3958C63.9995 26.124 63.6095 24.5292 62.8608 23.6114C62.1436 22.6612 61.3051 22.1927 60.3452 22.2059C59.5453 22.2169 58.8604 22.4504 58.2906 22.9063C57.7209 23.3622 57.2317 23.8649 56.8233 24.4146C56.3521 25.0612 55.9461 25.7868 55.6051 26.5916L55.8298 42.91L58.4795 43.5936L58.4861 44.0736L49.127 44.2025L49.1204 43.7225L51.9902 42.9629ZM83.3661 21.8889C82.6942 21.8982 82.0409 22.0992 81.4063 22.492C80.8032 22.8523 80.2514 23.452 79.7509 24.2909C79.2824 25.1295 78.8976 26.2389 78.5966 27.6192C78.3275 28.999 78.2071 30.7128 78.2353 32.7606C78.2635 34.8084 78.4311 36.5183 78.738 37.8902C79.0769 39.2616 79.4763 40.3763 79.9361 41.234C80.4276 42.0593 80.9477 42.6442 81.4965 42.9887C82.0772 43.3327 82.6396 43.501 83.1836 43.4935C83.9515 43.4829 84.6203 43.2497 85.1901 42.7938C85.7919 42.3375 86.297 41.8345 86.7055 41.2848C87.1771 40.6703 87.5831 39.9446 87.9236 39.1078L87.7254 24.7092C87.3979 24.1697 87.0233 23.6948 86.6017 23.2845C86.2448 22.9374 85.7925 22.6236 85.2446 22.3431C84.7282 22.0302 84.1021 21.8788 83.3661 21.8889ZM91.8095 42.4146L94.6992 43.0949L94.7058 43.5749L87.9864 43.6674L87.9468 40.7877C87.604 41.4645 87.1645 42.0786 86.628 42.63C86.1862 43.0841 85.6158 43.492 84.9167 43.8537C84.25 44.2469 83.4368 44.4501 82.4768 44.4633C81.4529 44.4774 80.4255 44.2355 79.3946 43.7377C78.3952 43.2074 77.4887 42.4518 76.6751 41.4709C75.8931 40.4576 75.2362 39.2345 74.7044 37.8017C74.2042 36.3365 73.9413 34.6759 73.9157 32.8201C73.8902 30.9643 74.1075 29.3131 74.5676 27.8666C75.0593 26.3877 75.7143 25.1466 76.5325 24.1432C77.3503 23.1079 78.2837 22.327 79.3325 21.8005C80.3809 21.242 81.4811 20.9548 82.633 20.9389C83.5289 20.9266 84.2986 21.044 84.9421 21.2912C85.5855 21.5384 86.1172 21.8031 86.5371 22.0853C87.0219 22.4307 87.4114 22.8253 87.7056 23.2693L87.5403 11.2705L84.6507 10.5902L84.6441 10.1102L91.3635 10.0177L91.8095 42.4146ZM99.2926 10.6286C99.1778 11.5903 98.9178 12.4579 98.5124 13.2316C98.107 14.0052 97.667 14.5874 97.1923 14.9779L96.7123 14.9845C96.7404 14.6961 96.7682 14.3917 96.7958 14.0713C96.8243 13.8149 96.8527 13.5585 96.8812 13.3021C96.9092 13.0136 96.9219 12.7734 96.9193 12.5815C96.9153 12.2935 96.8951 11.9897 96.8587 11.6702C96.8223 11.3507 96.7864 11.0632 96.7508 10.8076C96.7144 10.4881 96.6785 10.2006 96.643 9.94502L109.122 9.7732C109.061 10.0301 109.017 10.3187 108.99 10.6391C108.961 10.8955 108.933 11.1839 108.906 11.5043C108.91 11.8243 108.914 12.1283 108.918 12.4163C108.921 12.6082 108.924 12.8482 108.928 13.1362C108.964 13.3917 108.999 13.6473 109.035 13.9028C109.071 14.2223 109.123 14.5256 109.191 14.8127L108.711 14.8193C108.226 14.442 107.77 13.8722 107.344 13.11C106.917 12.3478 106.633 11.4876 106.492 10.5295L104.572 10.5559L104.747 23.2747L106.674 23.7282L106.68 24.2082L99.481 24.3073L99.4744 23.8274L101.388 23.321L101.212 10.6022L99.2926 10.6286ZM129.711 23.411L129.718 23.891L122.519 23.9901L122.512 23.5102L124.425 23.0038L124.277 12.2048L119.598 24.5104L119.118 24.517L112.998 12.3601L113.143 22.9191L115.073 23.6126L115.079 24.0925L110.52 24.1553L110.513 23.6754L112.423 22.929L112.255 10.6902L110.328 10.2366L110.322 9.75668L115.121 9.6906L120.45 20.1782L124.48 9.56173L129.52 9.49234L129.526 9.9723L127.613 10.4787L127.785 22.9575L129.711 23.411Z" fill="white"/>
</g>
<rect x="48" y="17" width="20" height="1" fill="#92744A"/>
<defs>
<filter id="filter0_d_32_8" x="0.289185" y="9.49234" width="133.703" height="44.041" filterUnits="userSpaceOnUse" color-interpolation-filters="sRGB">
<feFlood flood-opacity="0" result="BackgroundImageFix"/>
<feColorMatrix in="SourceAlpha" type="matrix" values="0 0 0 0 0 0 0 0 0 0 0 0 0 0 0 0 0 0 127 0" result="hardAlpha"/>
<feOffset dy="4"/>
<feGaussianBlur stdDeviation="2"/>
<feComposite in2="hardAlpha" operator="out"/>
<feColorMatrix type="matrix" values="0 0 0 0 0 0 0 0 0 0 0 0 0 0 0 0 0 0 0.25 0"/>
<feBlend mode="normal" in2="BackgroundImageFix" result="effect1_dropShadow_32_8"/>
<feBlend mode="normal" in="SourceGraphic" in2="effect1_dropShadow_32_8" result="shape"/>
</filter>
</defs>
</svg>
