<svg width="22" height="22" viewBox="0 0 22 22" fill="none" xmlns="http://www.w3.org/2000/svg">
<path d="M14.744 12.53C14.4518 12.2138 14.1235 11.9329 13.766 11.693C15.2077 10.5785 16.2182 8.99829 16.625 7.222C16.6556 7.09346 16.6603 6.96013 16.6391 6.82973C16.6178 6.69933 16.5709 6.57444 16.5011 6.46227C16.4313 6.3501 16.3399 6.25287 16.2323 6.17622C16.1247 6.09956 16.003 6.04499 15.8741 6.01565C15.7453 5.98632 15.6119 5.98281 15.4817 6.00532C15.3516 6.02783 15.2271 6.07592 15.1156 6.1468C15.0041 6.21769 14.9078 6.30997 14.8321 6.41831C14.7565 6.52665 14.7031 6.6489 14.675 6.778C14.4857 7.60905 14.1175 8.38881 13.5959 9.06291C13.0743 9.737 12.4119 10.2892 11.655 10.681V7.002C11.6487 6.92855 11.6339 6.85607 11.611 6.786C11.6042 6.72811 11.5925 6.6709 11.576 6.615C11.5334 6.52366 11.4771 6.43935 11.409 6.365C11.391 6.345 11.382 6.317 11.363 6.297C11.2898 6.2294 11.2069 6.17311 11.117 6.13C11.091 6.116 11.072 6.093 11.045 6.082C10.9685 6.0564 10.8893 6.03995 10.809 6.033C10.7593 6.01852 10.7084 6.00815 10.657 6.002L10.003 6H10C9.76572 5.99834 9.53836 6.07941 9.35798 6.22893C9.1776 6.37844 9.05577 6.58682 9.01395 6.81734C8.97212 7.04787 9.01298 7.28576 9.12933 7.48911C9.24569 7.69247 9.43007 7.84824 9.65 7.929V12.819C8.0653 11.1741 7.01591 9.0879 6.64 6.835C6.59571 6.5735 6.44935 6.3403 6.23312 6.18671C6.01689 6.03311 5.7485 5.97171 5.487 6.016C5.2255 6.06029 4.9923 6.20665 4.83871 6.42288C4.68511 6.63911 4.62371 6.9075 4.668 7.169C5.25233 10.6517 7.19437 13.7604 10.068 15.813C10.1091 15.8374 10.1518 15.8588 10.196 15.877C10.2308 15.8973 10.2669 15.9153 10.304 15.931C10.4154 15.9756 10.534 15.9997 10.654 16.002C10.8012 16.0002 10.9461 15.9653 11.078 15.9C11.088 15.895 11.099 15.898 11.109 15.893C11.1974 15.8467 11.2783 15.7874 11.349 15.717C11.364 15.703 11.373 15.687 11.387 15.672C11.4515 15.6012 11.5054 15.5213 11.547 15.435C11.5608 15.4066 11.5731 15.3776 11.584 15.348C11.6279 15.2378 11.6516 15.1206 11.654 15.002V12.876C12.2741 13.0577 12.8328 13.4052 13.27 13.881L14.917 15.678C15.0963 15.8735 15.3459 15.9897 15.6109 16.0011C15.8759 16.0126 16.1345 15.9183 16.33 15.739C16.5255 15.5597 16.6417 15.3101 16.6531 15.0451C16.6646 14.7801 16.5703 14.5215 16.391 14.326L14.744 12.53ZM14.073 0H7.937C1.78 0 0 1.778 0 7.927V14.063C0 20.22 1.778 22 7.927 22H14.063C20.22 22 22 20.222 22 14.073V7.937C22 1.78 20.222 0 14.073 0ZM20 14.073C20 19.113 19.112 20 14.062 20H7.928C2.887 20 2 19.112 2 14.062V7.928C2 2.887 2.888 2 7.938 2H14.073C19.113 2 20 2.888 20 7.938V14.073Z" fill="white"/>
</svg>
