<svg width="28" height="25" fill="none" xmlns="http://www.w3.org/2000/svg"><g clip-path="url(#clip0_32_4)"><path d="M1.912 22a.84.84 0 01-.35-.078.914.914 0 01-.296-.22 1.022 1.022 0 01-.197-.328A1.104 1.104 0 011 20.987V2.013C1 1.453 1.408 1 1.912 1h17.177c.503 0 .911.453.911 1.013v18.974c0 .132-.023.264-.069.387a1.023 1.023 0 01-.197.328.916.916 0 01-.296.22.84.84 0 01-.35.078H1.911h0z" stroke="#fff" stroke-width="2" stroke-linecap="round" stroke-linejoin="round"/><path fill-rule="evenodd" clip-rule="evenodd" d="M17 8.267h-1.55a.719.719 0 00-.55.273 1.036 1.036 0 00-.227.66v1.867H17l-.34 2.799h-1.987V19h-2.56v-5.134H10v-2.799h2.086l.027-2.657-.007-.952a2.88 2.88 0 01.148-.939c.101-.298.25-.57.44-.798.188-.228.412-.41.66-.533.247-.124.513-.188.781-.188H17v3.267z" fill="#fff"/></g><defs><clipPath id="clip0_32_4"><path fill="#fff" d="M0 0h28v25H0z"/></clipPath></defs></svg>