<svg width="137" height="63" fill="none" xmlns="http://www.w3.org/2000/svg"><g filter="url(#filter0_d_32_8)"><path d="M11.698 43.758l8.64-.12c-.02-1.343.235-2.595.764-3.754.528-1.16 1.202-2.16 2.022-3.004l.48-.007c-.058.417-.1.85-.126 1.298-.027.384-.053.8-.079 1.25l.018 1.295.023 1.632c.038.447.075.847.112 1.199.037.383.09.718.158 1.005l-18.958.261-.007-.48 2.87-.76-.43-31.196-2.89-.68-.006-.48 9.84-.136.006.48-2.87.76.433 31.437zm27.675-11.182c-2.783.038-4.838.69-6.165 1.957-1.295 1.234-1.928 2.938-1.898 5.114.02 1.44.387 2.555 1.102 3.346.715.79 1.489 1.18 2.32 1.168.769-.011 1.437-.244 2.007-.7a7.559 7.559 0 001.516-1.51c.471-.614.877-1.34 1.218-2.176l-.1-7.2zm-3.741-10.27c-.96.013-1.755.36-2.386 1.041-.631.649-.94 1.517-.924 2.605l.009.672c.034.192.069.367.103.527.034.16.085.319.15.478l-3.826 1.012a1.07 1.07 0 01-.149-.382c-.034-.16-.069-.335-.103-.526l-.01-.768a4.066 4.066 0 01.453-1.927 4.96 4.96 0 011.368-1.699 7.237 7.237 0 012.24-1.23c.891-.333 1.913-.507 3.065-.523 2.304-.031 4.12.6 5.45 1.893 1.362 1.294 2.058 3.028 2.088 5.204l.199 14.399 2.89.68.006.48-6.72.093-.04-2.88a7.466 7.466 0 01-1.318 1.842c-.442.454-1.012.862-1.711 1.224-.667.393-1.48.596-2.44.61-2.304.031-4.055-.489-5.254-1.56-1.167-1.072-1.763-2.52-1.788-4.344-.013-.896.215-1.795.683-2.698.5-.903 1.24-1.713 2.223-2.43 1.014-.719 2.302-1.296 3.864-1.734 1.562-.47 3.43-.72 5.606-.75l-.04-2.879c-.032-2.4-.423-4.075-1.173-5.024-.717-.95-1.555-1.419-2.515-1.406zM51.99 42.963l-.27-19.678-2.89-.68-.007-.48 6.72-.093.039 2.88a6.826 6.826 0 011.271-1.794c.442-.454 1.012-.878 1.711-1.272.699-.393 1.528-.597 2.488-.61.96-.013 1.842.15 2.647.492a6.34 6.34 0 012.18 1.458c.617.6 1.09 1.345 1.423 2.236.364.86.553 1.833.568 2.92l.199 14.4 2.89.68.006.48-9.36.129-.006-.48 2.63-.757-.198-14.398c-.032-2.272-.422-3.867-1.17-4.785-.717-.95-1.556-1.418-2.516-1.405-.8.01-1.485.244-2.054.7a8.185 8.185 0 00-1.468 1.509 10.899 10.899 0 00-1.218 2.177l.225 16.318 2.65.684.006.48-9.359.129-.007-.48 2.87-.76zm31.376-21.074c-.672.01-1.325.21-1.96.603-.603.36-1.155.96-1.655 1.799-.469.838-.853 1.948-1.154 3.328-.27 1.38-.39 3.094-.362 5.142.028 2.047.196 3.757.503 5.13.339 1.37.738 2.485 1.198 3.343.492.825 1.012 1.41 1.56 1.755.581.344 1.144.512 1.688.505.767-.011 1.436-.244 2.006-.7a7.559 7.559 0 001.516-1.51c.471-.614.877-1.34 1.218-2.176l-.199-14.399a7.158 7.158 0 00-1.123-1.424c-.357-.348-.81-.661-1.357-.942-.517-.313-1.143-.464-1.879-.454zm8.444 20.526l2.89.68.006.48-6.72.092-.04-2.88a7.467 7.467 0 01-1.318 1.843c-.442.454-1.012.862-1.711 1.224-.667.393-1.48.596-2.44.61-1.024.013-2.052-.228-3.082-.726-1-.53-1.906-1.286-2.72-2.267-.782-1.013-1.439-2.236-1.97-3.67-.5-1.465-.764-3.125-.79-4.98-.025-1.857.192-3.508.653-4.954.491-1.48 1.146-2.72 1.965-3.724.817-1.035 1.75-1.816 2.8-2.343a7.14 7.14 0 013.3-.861c.896-.012 1.666.105 2.31.352.642.247 1.174.512 1.594.794.485.346.874.74 1.169 1.184l-.166-11.998-2.89-.68-.006-.48 6.72-.093.445 32.397zm7.483-31.786c-.115.961-.375 1.829-.78 2.603-.406.773-.846 1.355-1.32 1.746l-.48.007c.027-.289.055-.593.083-.914l.085-.769c.028-.288.04-.529.038-.72a9.194 9.194 0 00-.06-.912 35.19 35.19 0 00-.108-.862 42.16 42.16 0 00-.108-.863l12.479-.172a5.916 5.916 0 00-.132.866 31.07 31.07 0 00-.084.865l.012.912.01.72.107.767c.036.32.088.623.156.91l-.48.006c-.485-.377-.941-.947-1.367-1.709-.427-.762-.711-1.622-.852-2.58l-1.92.026.175 12.719 1.927.453.006.48-7.199.1-.007-.48 1.914-.507-.176-12.719-1.92.027zM129.71 23.41l.007.48-7.199.1-.007-.48 1.913-.507-.148-10.8-4.679 12.306-.48.007-6.12-12.157.145 10.56 1.93.693.006.48-4.559.062-.007-.48 1.91-.746-.168-12.239-1.927-.453-.006-.48 4.799-.066 5.329 10.487 4.03-10.616 5.04-.07.006.48-1.913.507.172 12.479 1.926.453z" fill="#fff"/></g><path fill="#92744A" d="M48 17h20v1H48z"/><defs><filter id="filter0_d_32_8" x=".289" y="9.492" width="133.703" height="44.041" filterUnits="userSpaceOnUse" color-interpolation-filters="sRGB"><feFlood flood-opacity="0" result="BackgroundImageFix"/><feColorMatrix in="SourceAlpha" values="0 0 0 0 0 0 0 0 0 0 0 0 0 0 0 0 0 0 127 0" result="hardAlpha"/><feOffset dy="4"/><feGaussianBlur stdDeviation="2"/><feComposite in2="hardAlpha" operator="out"/><feColorMatrix values="0 0 0 0 0 0 0 0 0 0 0 0 0 0 0 0 0 0 0.25 0"/><feBlend in2="BackgroundImageFix" result="effect1_dropShadow_32_8"/><feBlend in="SourceGraphic" in2="effect1_dropShadow_32_8" result="shape"/></filter></defs></svg>