<svg width="22" height="22" fill="none" xmlns="http://www.w3.org/2000/svg"><path d="M14.744 12.53a5.519 5.519 0 00-.978-.837 7.873 7.873 0 002.859-4.471 1 1 0 10-1.95-.444 5.86 5.86 0 01-3.02 3.903V7.002a.96.96 0 00-.044-.216 1.027 1.027 0 00-.035-.171.989.989 0 00-.167-.25c-.018-.02-.027-.048-.046-.068a1 1 0 00-.246-.167c-.026-.014-.045-.037-.072-.048a1.021 1.021 0 00-.236-.049.945.945 0 00-.152-.031L10.003 6H10a.995.995 0 00-.35 1.929v4.89a11.307 11.307 0 01-3.01-5.984 1 1 0 00-1.972.334 13.334 13.334 0 005.4 8.644.986.986 0 00.128.064.976.976 0 00.458.125.983.983 0 00.424-.102c.01-.005.021-.002.031-.007a.993.993 0 00.24-.176c.015-.014.024-.03.038-.045a.99.99 0 00.197-.324.989.989 0 00.07-.346v-2.126a3.55 3.55 0 011.616 1.005l1.647 1.797a1 1 0 101.474-1.352l-1.647-1.796zM14.073 0H7.937C1.78 0 0 1.778 0 7.927v6.136C0 20.22 1.778 22 7.927 22h6.136C20.22 22 22 20.222 22 14.073V7.937C22 1.78 20.222 0 14.073 0zM20 14.073c0 5.04-.888 5.927-5.938 5.927H7.928C2.887 20 2 19.112 2 14.062V7.928C2 2.887 2.888 2 7.938 2h6.135C19.113 2 20 2.888 20 7.938v6.135z" fill="#fff"/></svg>